<svg width="400" height="400" viewBox="0 0 400 400" fill="none" xmlns="http://www.w3.org/2000/svg">
<g clip-path="url(#clip0_648_389)">
<path d="M119.607 29.0105L231.909 28.9291C252.033 28.9168 275.014 27.6976 294.623 30.173C373.251 40.3671 411.424 130.665 368.496 195.942C349.498 224.83 328.844 235.22 296.098 242.512C298.97 245.338 303.285 251.044 305.91 254.315L324.372 277.307L400.25 371.566C380.237 371.724 360.224 371.73 340.211 371.584C334.603 362.591 318.029 343.317 310.841 334.209L236.903 241.617C226.916 229.182 211.523 212.05 202.873 199.448L212.684 199.489L270.093 199.421C291.153 199.27 306.164 196.429 321.8 180.911C333.273 169.255 339.116 152.804 339.321 136.646C339.703 110.45 321.066 83.4311 295.068 77.2624C279.003 73.4507 253.806 74.7221 236.791 74.7109C213.322 74.6155 189.853 74.6875 166.385 74.9276L166.146 241.853C166.034 257.683 166.225 273.508 166.231 289.355C166.241 311.235 161.725 333.305 145.941 349.475C128.952 366.881 110.264 371.29 86.7365 371.603L86.7148 323.048C124.795 321.992 119.667 295.392 119.646 267.07L119.604 211.92L119.607 29.0105Z" fill="#17202E"/>
<path d="M25.3272 315.194C40.9323 313.367 55.0998 324.444 57.0903 340.03C59.0807 355.615 48.1516 369.898 32.5875 372.05C22.374 373.463 12.1892 369.281 5.91568 361.098C-0.357871 352.916 -1.75219 341.994 2.26328 332.498C6.27934 323.001 15.0868 316.393 25.3272 315.194Z" fill="#01D2C5"/>
</g>
<defs>
<clipPath id="clip0_648_389">
<rect width="400" height="400" fill="white"/>
</clipPath>
</defs>
</svg>
