<svg width="670" height="136" viewBox="0 0 670 136" fill="none" xmlns="http://www.w3.org/2000/svg">
  <rect width="670" height="136" rx="28" fill="#050505"/>
  <rect x="16" y="16" width="104" height="104" rx="26" fill="url(#bg)" fill-opacity="0.18"/>
  <path d="M46 33H63.4C70.6 33 76.2 34.8 80.4 38.3C84.8 41.8 87 46.8 87 53.2C87 57.9 85.7 61.7 83 64.6C80.5 67.5 77.2 69.3 73 70.1L88.5 83H77.7L64.5 71.1H58.8V83H46V33ZM58.8 41.6V62.6H64.4C68.1 62.6 70.9 61.8 72.8 60.2C74.7 58.6 75.7 56.2 75.7 53C75.7 49.7 74.7 47.4 72.8 45.9C71 44.3 68.3 43.6 64.8 43.6H58.8V41.6Z" fill="white"/>
  <circle cx="35" cy="90" r="6" fill="#01D2C5"/>

  <text x="144" y="58" fill="#fff" font-family="Inter, Arial, sans-serif" font-size="34" font-weight="700" letter-spacing="-0.04em">JustRouter</text>
  <text x="144" y="88" fill="#b7c0cc" font-family="Inter, Arial, sans-serif" font-size="15" font-weight="500">AI platform · websites · models · agents</text>

  <defs>
    <linearGradient id="bg" x1="24" y1="20" x2="116" y2="116" gradientUnits="userSpaceOnUse">
      <stop stop-color="#01D2C5"/>
      <stop offset="1" stop-color="#0EA5E9"/>
    </linearGradient>
  </defs>
</svg>
