<svg width="350" height="350" viewBox="0 0 350 350" fill="none" xmlns="http://www.w3.org/2000/svg">
<path d="M55.8516 34.3232C100.557 33.6609 146.774 34.2231 191.296 34.2158H191.297L231.334 34.2139L236.233 34.2041C247.626 34.1701 258.731 34.1734 269.229 36.4238C281.857 39.1312 293.469 44.9787 305.37 56.6309C320.705 71.6317 329.413 92.1435 329.54 113.601L329.541 113.614V113.627C329.613 135.219 321.118 155.957 305.931 171.297C289.839 187.625 272.906 193.029 252.624 193.777L290.214 240.266L290.215 240.267C298.598 250.637 309.255 263.219 317.487 274.342L329.269 290.261L309.464 290.291L268.288 290.354L263.458 290.361L260.449 286.583L217.42 232.54V232.539C211.285 224.88 202.728 213.52 196.97 207.172L196.382 206.523L195.915 205.783C195.084 204.464 192.951 201.717 190.213 198.355C188.09 195.75 184.729 191.722 183.336 190.012C179.605 185.744 176.022 181.162 172.68 176.947C169.221 172.586 165.971 168.556 162.634 164.97L161.756 164.026L161.242 163.07C161.234 163.06 161.224 163.047 161.214 163.034C160.962 162.719 160.867 162.627 160.274 161.925C159.379 160.863 157.679 158.8 156.604 155.853L151.699 142.414L166.005 142.425L225.153 142.467H225.152C227.536 142.467 230.458 142.527 233.445 142.578C236.489 142.631 239.699 142.678 242.863 142.663C249.522 142.632 254.88 142.314 257.783 141.607L258.233 141.493C267.624 139.009 274.084 131.05 276.2 120.869C278.373 110.419 275.521 99.5151 268.213 92.8613L268.157 92.8115L268.103 92.7598C259.294 84.4952 253.234 85.5771 236.55 85.5693L206.135 85.5635C165.407 85.562 122.536 86.1909 81.6523 85.5469L77.041 85.4746L74.1025 81.9199L48.292 50.6934L35.0166 34.6318L55.8516 34.3232Z" fill="black" stroke="black" stroke-width="20"/>
<path d="M156.406 142L188.787 142.044L198.765 142.058L198.774 152.035L198.798 178.323V178.327L198.832 248.054V248.158L198.778 253.509C198.599 271.961 193.508 288.531 180.757 303.194C168.028 317.884 149.909 326.807 130.509 327.945L130.51 327.946C126.08 328.217 121.495 328.206 117.211 328.162C112.806 328.117 108.789 328.04 104.974 328.132H104.97C82.4734 328.664 59.4537 328.716 38.4219 309.706L37.627 308.979C21.0958 293.669 14.3563 275.547 13.0195 254.273L12.3535 243.665L22.9824 243.646C33.9769 243.627 44.9733 243.66 55.9707 243.753L65.6494 243.835L65.8838 253.511C66.0502 260.379 67.7679 265.16 71.9971 269.718L72.3682 270.107C76.2344 274.062 81.0599 275.783 87.5664 276.415C91.0129 276.75 94.7037 276.756 98.8301 276.681C102.777 276.608 107.348 276.452 111.72 276.578H111.719C125.52 276.974 133.718 276.596 140.195 270.065L140.196 270.064C142.81 267.43 144.203 265.13 145.036 262.827C145.905 260.426 146.366 257.471 146.397 253.229L146.393 152V141.986L156.406 142Z" fill="#AA2B00" stroke="#AA2B00" stroke-width="20"/>
</svg>
