<svg xmlns="http://www.w3.org/2000/svg" viewBox="0 0 400 300" fill="none">
  <rect width="400" height="300" fill="#000"/>
  <ellipse cx="200" cy="108" rx="200" ry="72" fill="#000" filter="url(#blur)" opacity="0.95"/>
  <defs>
    <filter id="blur" x="-50%" y="-50%" width="200%" height="200%">
      <feGaussianBlur stdDeviation="28"/>
    </filter>
  </defs>
  <rect x="0" y="180" width="400" height="120" fill="url(#fade)"/>
  <defs>
    <linearGradient id="fade" x1="0" y1="0" x2="0" y2="1">
      <stop offset="0%" stop-color="#000" stop-opacity="0"/>
      <stop offset="100%" stop-color="#000"/>
    </linearGradient>
  </defs>
  <rect x="0" y="8" width="10" height="10" fill="#fff"/>
  <rect x="0" y="20" width="10" height="10" fill="#fff"/>
  <rect x="14" y="14" width="10" height="10" fill="#fff"/>
  <text x="30" y="20" fill="#fff" font-family="system-ui,sans-serif" font-size="7" font-weight="700" letter-spacing="1.5">LOGOIPSUM</text>
  <rect x="318" y="12" width="62" height="16" rx="4" fill="#7b39fc"/>
  <text x="349" y="23" text-anchor="middle" fill="#fafafa" font-family="system-ui,sans-serif" font-size="6">Get Started</text>
  <text x="200" y="118" text-anchor="middle" fill="#fff" font-family="system-ui,sans-serif" font-size="22" font-weight="500" letter-spacing="-1">Automate repetitive.</text>
  <text x="200" y="148" text-anchor="middle" fill="#fff" font-family="Georgia,serif" font-size="22" font-style="italic" letter-spacing="-1">Focus on growth.</text>
  <text x="200" y="172" text-anchor="middle" fill="#f6f7f9" font-family="system-ui,sans-serif" font-size="7" opacity="0.85">AI agent platform...</text>
  <rect x="128" y="188" width="68" height="20" rx="5" fill="#7b39fc"/>
  <rect x="204" y="188" width="68" height="20" rx="5" fill="#2b2344"/>
  <rect x="48" y="222" width="304" height="64" rx="14" fill="rgba(255,255,255,0.05)" stroke="rgba(255,255,255,0.06)" stroke-width="1"/>
  <rect x="58" y="232" width="284" height="44" rx="6" fill="#12121a"/>
</svg>
